<svg width="280" height="272" viewBox="0 0 280 272" fill="none" xmlns="http://www.w3.org/2000/svg">
<mask id="mask0_197_301" style="mask-type:alpha" maskUnits="userSpaceOnUse" x="0" y="0" width="280" height="259">
<path d="M0 0H280V258.472H0V0Z" fill="white"/>
</mask>
<g mask="url(#mask0_197_301)">
<path fill-rule="evenodd" clip-rule="evenodd" d="M71.1349 253.66C36.8363 241.466 7.0854 211.16 0.992918 173.533C-5.09957 135.906 17.4048 93.4933 52.7652 85.3365C69.485 81.4778 87.532 84.9244 103.505 78.4472C133.632 66.2315 143.87 24.9033 171.704 7.66643C198.52 -8.9387 235.285 3.03791 255.264 28.1711C275.241 53.3043 281.07 87.9842 279.846 120.753C278.047 168.897 258.647 220.817 217.237 241.174C182.341 258.328 108.562 263.189 71.1349 253.66Z" fill="#FDF2E0"/>
</g>
<path fill-rule="evenodd" clip-rule="evenodd" d="M29.7183 245.359C37.2753 258.588 52.8452 263.555 67.0352 263.239C81.2233 262.923 95.0972 258.452 109.265 257.546C131.72 256.113 153.724 263.633 175.796 268.397C197.87 273.159 221.995 274.859 241.68 262.875C246.5 259.942 251.15 255.935 253.101 250.262C255.053 244.591 253.289 237.063 248.21 234.719C246.243 233.813 244.052 233.756 241.919 233.712C194.631 232.746 147.343 231.781 100.054 230.813C75.9831 230.322 49.4479 230.773 31.3903 248.313" fill="#FDF2E0"/>
<path fill-rule="evenodd" clip-rule="evenodd" d="M233.418 96.2407C230.509 99.1778 229.402 103.75 232.177 107.279C234.79 110.599 239.844 111.304 243.106 108.657C250.984 102.265 242.773 90.4716 234.273 92.9124C232.699 93.3639 233.092 95.7229 234.647 95.8164C237.132 95.9643 239.792 96.0655 241.779 97.8971C243.91 99.8629 243.958 103.189 242.208 105.451C237.574 111.44 229.528 102.621 234.394 97.2664C235.008 96.591 234.06 95.5925 233.418 96.2407Z" fill="#3A3A3A" fill-opacity="0.5"/>
<path fill-rule="evenodd" clip-rule="evenodd" d="M43.8713 67.1895C40.946 65.7998 37.3468 66.1209 34.6863 68.007C32.0257 69.893 30.3946 73.2817 30.5242 76.6548C30.6261 79.2902 31.6258 82.2896 30.0317 84.3274C28.7987 85.9001 26.5992 86.0481 24.8329 86.8889C21.4744 88.4849 19.8025 93.1543 21.33 96.6812C22.1557 98.5906 23.7942 100.348 23.4813 102.419C23.2795 103.76 22.2668 104.821 21.1467 105.496C20.0247 106.17 18.7694 106.555 17.6086 107.151C13.3799 109.327 10.8119 114.382 10.9323 119.329C11.0545 124.277 13.6446 128.972 17.3586 132.014C21.0745 135.056 25.8105 136.533 30.515 136.718C35.2306 136.903 40.1628 135.741 43.7602 132.534C46.4614 130.124 48.224 126.749 49.5237 123.286C51.9972 116.702 52.9989 109.514 52.4286 102.462C51.8343 95.1435 49.5848 88.0509 49.0923 80.7247C48.9276 78.2703 48.9609 75.7828 48.4406 73.3829C47.9204 70.983 46.7521 68.6104 44.7507 67.3355" fill="#3A3A3A"/>
<path fill-rule="evenodd" clip-rule="evenodd" d="M42.799 68.1369C45.4781 62.2822 50.8047 57.8425 56.8403 56.4352C60.5469 55.571 64.6146 55.863 67.8712 57.9145C71.1298 59.966 73.3811 63.9678 72.8849 67.9267C72.5776 70.3733 71.3149 72.5572 70.5132 74.8773C69.7116 77.1993 69.4487 80.0294 70.9391 81.9368C72.2758 83.6496 74.5679 84.072 76.3934 85.1795C79.0002 86.7639 80.6388 89.9598 80.4666 93.1208C80.2944 96.2817 78.3171 99.2597 75.5547 100.519C78.2986 100.854 80.8776 102.467 82.4643 104.842C84.0528 107.218 84.6231 110.315 83.9936 113.143C83.0901 117.196 79.9574 120.296 76.5878 122.486C71.9074 125.528 66.479 127.292 60.9802 127.552C55.1444 127.831 48.681 126.015 45.5058 120.859C43.423 117.474 43.1045 113.25 42.8712 109.225C42.1658 97.0758 41.6826 84.9129 41.1994 72.7518C41.1216 70.7957 41.0457 68.8084 41.4845 66.9049" fill="#3A3A3A"/>
<path fill-rule="evenodd" clip-rule="evenodd" d="M62.4326 123.028L114.752 143.648L109.757 121.436L123.364 117.8C123.364 117.8 137.999 161.222 127.835 162.384C110.041 164.42 83.1169 157.012 83.1169 157.012L62.4326 123.028Z" fill="#3A3A3A" fill-opacity="0.5"/>
<path fill-rule="evenodd" clip-rule="evenodd" d="M57.8589 217.803C57.8589 217.803 121.065 145.274 163.735 161.108C206.406 176.944 224.422 250.815 224.422 250.815L190.435 250.235C190.435 250.235 163.595 194.442 150.498 196.603C137.399 198.767 96.9484 251.872 96.9484 251.872L57.8589 217.803Z" fill="#3A3A3A" fill-opacity="0.5"/>
<path fill-rule="evenodd" clip-rule="evenodd" d="M77.8561 173.771L80.4796 216.325C66.8548 233.936 19.4228 211.167 19.4228 211.167L18.8692 193.375L17.7676 150.999C18.8599 134.123 33.7696 125.842 33.7696 125.842C39.933 122.611 49.3328 120.777 57.8013 121.219C66.6419 121.676 68.8266 126.128 72.4684 134.608C75.4103 141.459 83.3956 152.622 77.8561 173.771Z" fill="#3A3A3A" fill-opacity="0.5"/>
<path fill-rule="evenodd" clip-rule="evenodd" d="M28.2876 219.185C28.2876 219.185 21.0337 250.226 43.1436 255.119C65.2535 260.01 146.572 248.565 167.753 250.523C188.933 252.478 249.168 256.174 249.168 256.174L253.578 219.311C253.578 219.311 159.842 214.587 149.248 217.357C138.654 220.123 28.2876 219.185 28.2876 219.185Z" fill="#3A3A3A" fill-opacity="0.5"/>
<path fill-rule="evenodd" clip-rule="evenodd" d="M38.8881 164.916C38.8881 164.916 32.2581 205.99 41.6079 204.978C72.3622 201.654 90.6748 201.206 90.6748 201.206L95.772 212.332C95.8903 214.228 37.531 231.79 28.1534 225.984C21.5327 221.885 10.985 210.841 15.7728 177.838L16.9041 166.775L38.8881 164.916Z" fill="#3A3A3A"/>
<path fill-rule="evenodd" clip-rule="evenodd" d="M66.6381 223.883L66.5752 221.129L105.176 215.399L115.422 177.732L158.183 176.642L146.644 217.412L66.6381 223.883Z" fill="#3A3A3A" fill-opacity="0.5"/>
<path fill-rule="evenodd" clip-rule="evenodd" d="M136.026 195.585C136.068 197.422 134.685 198.95 132.937 198.995C131.189 199.037 129.737 197.583 129.695 195.746C129.652 193.911 131.035 192.383 132.783 192.338C134.531 192.295 135.983 193.747 136.026 195.585Z" fill="#3A3A3A"/>
<path fill-rule="evenodd" clip-rule="evenodd" d="M137.292 195.552C137.352 198.125 135.415 200.263 132.967 200.325C130.52 200.387 128.487 198.351 128.428 195.778C128.368 193.205 130.305 191.068 132.753 191.007C135.2 190.945 137.233 192.981 137.292 195.552Z" fill="#3A3A3A"/>
<path fill-rule="evenodd" clip-rule="evenodd" d="M21.972 137.673C21.972 137.673 14.7977 144.913 13.1943 172.315L40.9586 169.086C40.9586 169.086 45.5853 122.417 21.972 137.673Z" fill="#3A3A3A"/>
<path fill-rule="evenodd" clip-rule="evenodd" d="M225.778 55.2744C225.778 55.2744 235.62 78.5104 238.364 77.292C241.11 76.0755 266.528 59.4962 266.528 59.4962C266.528 59.4962 256.11 38.6932 253.942 37.4786C251.774 36.266 225.778 55.2744 225.778 55.2744Z" fill="#3A3A3A" fill-opacity="0.5"/>
<path fill-rule="evenodd" clip-rule="evenodd" d="M253.942 37.4794C254.066 37.5281 253.342 39.9124 252.07 43.7234C250.8 47.5364 248.98 52.778 246.917 58.5452C246.866 58.6872 246.814 58.8293 246.767 58.9617L246.629 59.349L246.238 59.2828C240.545 58.3077 235.42 57.3734 231.723 56.6494C228.025 55.9253 225.755 55.4115 225.778 55.2752C225.798 55.139 228.105 55.4056 231.83 55.9487C235.555 56.4937 240.698 57.3131 246.393 58.2824L245.866 58.6055C245.912 58.4731 245.962 58.3311 246.014 58.189C248.078 52.4218 249.998 47.2191 251.433 43.4723C252.868 39.7236 253.818 37.4307 253.942 37.4794Z" fill="#3A3A3A"/>
<path fill-rule="evenodd" clip-rule="evenodd" d="M235.13 74.5634C234.871 74.503 235.636 70.6862 236.839 66.0421C238.045 61.3961 239.226 57.6999 239.48 57.7855C239.733 57.8712 238.969 61.688 237.771 66.3088C236.573 70.9275 235.389 74.6237 235.13 74.5634Z" fill="#3A3A3A"/>
<path fill-rule="evenodd" clip-rule="evenodd" d="M264.851 54.8743C264.81 55.1507 261.263 54.7906 256.928 54.0665C252.594 53.3464 249.115 52.5367 249.156 52.2603C249.199 51.9839 252.744 52.344 257.08 53.0661C261.413 53.7882 264.892 54.5979 264.851 54.8743Z" fill="#3A3A3A"/>
<path fill-rule="evenodd" clip-rule="evenodd" d="M35.8772 80.2372L36.5049 88.9356C36.5049 88.9356 29.4694 89.9341 31.4764 96.6803C33.4815 103.426 38.2934 100.474 38.2934 100.474C38.2934 100.474 39.4968 117.762 56.3431 112.281C69.7494 107.919 68.9292 89.6675 67.2277 74.108C66.5686 68.0801 61.1439 63.9362 55.4784 65.0963L45.3511 67.1711C39.4987 68.3681 35.4255 73.9854 35.8772 80.2372Z" fill="#3A3A3A"/>
<path fill-rule="evenodd" clip-rule="evenodd" d="M36.5054 96.1562L41.0451 121.601C42.0671 127.335 47.4437 131.002 52.8406 129.65C57.8414 128.394 61.0444 123.258 60.1464 117.936L57.6822 103.352L36.5054 96.1562Z" fill="#3A3A3A"/>
<path fill-rule="evenodd" clip-rule="evenodd" d="M55.1378 96.4433C55.2026 96.3947 55.3396 96.6691 55.647 96.7061C55.947 96.7392 56.4043 96.4122 56.5154 95.7212C56.6691 95.0361 56.5839 94.1349 56.4914 93.0916C56.4117 91.9705 56.334 90.8611 56.2525 89.701C55.9655 84.8857 55.947 80.9676 56.2136 80.95C56.4802 80.9326 56.9284 84.8214 57.2154 89.6368C57.2709 90.8007 57.3246 91.9102 57.3783 93.0332C57.4172 94.0629 57.4542 95.0808 57.1691 95.9236C56.9469 96.8034 56.0858 97.3484 55.5489 97.0876C55.0341 96.8131 55.1026 96.4375 55.1378 96.4433Z" fill="#3A3A3A"/>
<path fill-rule="evenodd" clip-rule="evenodd" d="M60.6029 110.505C60.6789 110.599 60.0086 111.375 58.6238 112.212C57.2537 113.047 55.1134 113.871 52.6492 113.923C50.1849 113.98 48.0113 113.254 46.6097 112.479C45.1934 111.704 44.4936 110.959 44.5639 110.861C44.688 110.579 47.9724 113.03 52.6288 112.909C57.2852 112.823 60.4696 110.229 60.6029 110.505Z" fill="#3A3A3A"/>
<path fill-rule="evenodd" clip-rule="evenodd" d="M57.3132 100.013C57.4077 100.085 57.191 100.655 56.4448 101.206C55.7245 101.751 54.3987 102.195 53.0062 101.733C51.6193 101.256 50.7879 100.083 50.5046 99.1992C50.2046 98.2941 50.3435 97.6966 50.4602 97.6985C50.6064 97.6849 50.7213 98.2123 51.1212 98.8936C51.5082 99.569 52.2526 100.41 53.3006 100.77C54.3524 101.12 55.4227 100.894 56.1133 100.581C56.8151 100.272 57.2021 99.9135 57.3132 100.013Z" fill="#3A3A3A"/>
<path fill-rule="evenodd" clip-rule="evenodd" d="M35.976 97.5238C35.9778 97.6425 35.5649 97.8508 34.8335 97.625C34.4835 97.5102 34.0206 97.1812 33.8225 96.611C33.7225 96.3326 33.6781 95.992 33.778 95.6358C33.8577 95.2874 34.1743 94.9118 34.5243 94.7911C35.002 94.5867 35.6705 94.7074 35.9797 95.2602L35.1612 95.7078C34.6261 94.2831 34.3669 93.1911 34.5669 93.0977C34.765 93.0043 35.3612 93.9405 36.0056 95.3147L35.1872 95.7623C35.1687 95.7331 35.0335 95.6708 34.8668 95.739C34.6872 95.7954 34.6057 96.0212 34.6668 96.319C34.7261 96.6032 34.9057 96.8153 35.1242 96.9769C35.5668 97.2844 35.9871 97.3739 35.976 97.5238Z" fill="#3A3A3A"/>
<path fill-rule="evenodd" clip-rule="evenodd" d="M61.8852 85.318C61.6259 85.3803 61.2815 84.8061 61.1149 84.0373C60.9501 83.2684 61.0278 82.5969 61.2871 82.5347C61.5463 82.4724 61.8907 83.0466 62.0555 83.8154C62.2222 84.5842 62.1444 85.2557 61.8852 85.318Z" fill="#3A3A3A"/>
<path fill-rule="evenodd" clip-rule="evenodd" d="M47.6218 86.7121C47.3645 86.788 46.9923 86.2236 46.7886 85.4547C46.5849 84.684 46.6293 84.0008 46.8867 83.9249C47.1423 83.8509 47.5144 84.4134 47.7181 85.1842C47.9218 85.953 47.8792 86.6362 47.6218 86.7121Z" fill="#3A3A3A"/>
<path fill-rule="evenodd" clip-rule="evenodd" d="M48.9471 80.3788C48.8656 80.6532 48.1064 80.6435 47.2658 80.8907C46.4177 81.1087 45.7603 81.5096 45.5622 81.3111C45.3567 81.1437 45.8825 80.2211 47.0213 79.9097C48.1564 79.5924 49.0471 80.1258 48.9471 80.3788Z" fill="#3A3A3A"/>
<path fill-rule="evenodd" clip-rule="evenodd" d="M63.5108 77.9517C63.4034 78.2164 62.5683 78.086 61.5906 78.1872C60.611 78.2651 59.8093 78.5473 59.6611 78.306C59.5019 78.0899 60.2611 77.29 61.5073 77.179C62.7534 77.0603 63.6311 77.7104 63.5108 77.9517Z" fill="#3A3A3A"/>
<path fill-rule="evenodd" clip-rule="evenodd" d="M36.5052 88.9362C41.2078 84.117 42.589 76.0881 43.8647 69.3166C48.2193 72.6508 54.2087 73.4702 59.2298 71.4207C60.8053 73.3671 62.6568 75.0682 64.7026 76.4462C65.2858 76.8394 65.9746 77.2209 66.6374 77.0107C67.4261 76.7616 67.7779 75.8098 67.9649 74.965C68.5666 72.2654 68.5888 69.375 67.6927 66.7649C66.7966 64.1587 64.9174 61.8658 62.4568 60.8654C59.8278 59.7949 56.8692 60.2601 54.1383 61.0036C50.0263 62.1247 46.0623 63.8473 42.3965 66.1051C38.7973 68.3201 35.3425 71.2533 33.815 75.331C32.2894 79.4106 32.2969 87.3402 35.9757 89.4014" fill="#3A3A3A"/>
<path fill-rule="evenodd" clip-rule="evenodd" d="M55.6983 100.957C55.9242 102.329 54.8113 103.664 53.2893 103.331C51.7672 102.983 51.2691 101.289 52.0061 100.131C52.7412 98.9577 53.7226 98.2628 54.291 98.3718C54.8521 98.5158 55.4817 99.5708 55.6983 100.957Z" fill="#3A3A3A"/>
<path fill-rule="evenodd" clip-rule="evenodd" d="M49.8376 92.8803C50.0709 94.2525 48.4583 95.7045 46.2088 95.8096C43.9593 95.9206 42.2263 94.6262 42.343 93.2385C42.4559 91.839 44.0889 90.8444 45.9903 90.7471C47.8917 90.6614 49.6043 91.4984 49.8376 92.8803Z" fill="#3A3A3A"/>
<path fill-rule="evenodd" clip-rule="evenodd" d="M67.6506 91.352C67.9154 92.7184 66.5026 94.1723 64.4658 94.2813C62.4271 94.3922 60.8809 93.0979 61.0105 91.7101C61.1383 90.3126 62.5752 89.3141 64.2176 89.2187C65.8619 89.137 67.3877 89.9739 67.6506 91.352Z" fill="#3A3A3A"/>
<path fill-rule="evenodd" clip-rule="evenodd" d="M36.3121 111.962C36.0418 111.956 35.8918 109.165 35.7214 105.738C35.5566 102.308 35.4326 99.5168 35.7011 99.4818C35.9603 99.4448 36.5177 102.213 36.6843 105.685C36.8565 109.157 36.5732 111.97 36.3121 111.962Z" fill="#3A3A3A"/>
<path fill-rule="evenodd" clip-rule="evenodd" d="M64.2633 122.843C59.7106 120.941 94.7288 134.609 94.7288 134.609L91.1759 159.791L77.8566 155.198L64.2633 122.843Z" fill="#3A3A3A" fill-opacity="0.5"/>
<path fill-rule="evenodd" clip-rule="evenodd" d="M43.4254 65.877C44.5271 64.1291 44.8899 61.8869 44.3993 59.8549C43.9957 58.181 42.7941 56.5207 41.1537 56.4331C40.2225 56.3825 39.319 56.8594 38.6339 57.527C36.9417 59.1736 36.5066 62.0738 37.6341 64.1875C38.7617 66.3013 41.3407 67.4244 43.5606 66.7684" fill="#3A3A3A"/>
<path fill-rule="evenodd" clip-rule="evenodd" d="M252.639 227.154C252.639 227.154 264.029 209.987 262.641 216.486C261.252 222.985 249.682 251.872 249.682 251.872L252.639 227.154Z" fill="#3A3A3A" fill-opacity="0.5"/>
<path fill-rule="evenodd" clip-rule="evenodd" d="M87.4397 201.209C87.4397 201.209 102.49 196.246 101.974 197.879C101.457 199.51 98.8965 199.57 96.3359 202.203C96.3359 202.203 113.16 202.394 112.351 203.852C111.542 205.308 100.591 205.676 100.524 205.923C100.459 206.172 112.503 206.482 112.232 207.829C111.96 209.177 100.768 208.848 100.768 208.848C100.768 208.848 111.144 210.008 110.931 211.46C110.718 212.914 101.153 211.867 101.153 211.867C101.153 211.867 109.159 212.829 108.95 214.145C108.824 214.946 85.5105 215.127 85.4622 215.717C85.4365 216.027 87.4397 201.209 87.4397 201.209Z" fill="#3A3A3A"/>
<path fill-rule="evenodd" clip-rule="evenodd" d="M110.739 122.843C110.739 122.843 101.6 109.413 103.23 109.421C104.859 109.426 105.709 111.955 108.873 113.685C108.873 113.685 103.824 96.8917 105.385 97.244C106.949 97.5963 110.678 108.375 110.922 108.364C111.165 108.352 107.705 96.2747 109.003 96.1268C110.299 95.9789 113.477 107.213 113.477 107.213C113.477 107.213 111.3 96.5336 112.674 96.2942C114.05 96.0548 116.075 105.894 116.075 105.894C116.075 105.894 114.455 97.6314 115.705 97.4289C116.466 97.3063 123.364 117.802 123.364 117.802C123.183 117.802 110.739 122.843 110.739 122.843Z" fill="#3A3A3A" fill-opacity="0.5"/>
<path fill-rule="evenodd" clip-rule="evenodd" d="M26.4567 159.791C26.5567 159.781 26.8973 160.418 26.9159 161.687C26.9122 162.302 26.6733 163.195 25.929 163.752C25.5736 164.03 25.044 164.229 24.496 164.102C23.9536 163.984 23.5444 163.596 23.25 163.258C22.6538 162.528 22.2669 162.096 21.6559 162.02C21.0709 161.922 20.5432 162.129 20.2044 162.454C19.4934 163.137 19.5156 163.925 19.3712 163.916C19.275 163.98 18.9065 163.073 19.7063 161.963C20.097 161.434 20.8839 161.002 21.7559 161.091C22.1873 161.13 22.6483 161.292 23.0371 161.603C23.4166 161.905 23.6869 162.269 23.9536 162.569C24.9126 163.943 26.1679 162.602 26.2364 161.613C26.3882 160.57 26.2993 159.803 26.4567 159.791Z" fill="#3A3A3A"/>
<path fill-rule="evenodd" clip-rule="evenodd" d="M34.6782 152.332C34.6171 152.248 34.9578 151.609 35.98 150.934C36.4818 150.617 37.3317 150.368 38.1705 150.743C38.5816 150.919 39.0186 151.29 39.2019 151.849C39.3871 152.398 39.2852 152.968 39.1649 153.408C38.8797 154.321 38.7316 154.895 38.9871 155.485C39.2111 156.059 39.6537 156.425 40.0962 156.559C41.0184 156.841 41.648 156.411 41.7165 156.547C41.8183 156.6 41.2721 157.402 39.9555 157.262C39.3222 157.188 38.5612 156.707 38.1798 155.876C37.9872 155.467 37.8798 154.969 37.9298 154.459C37.9779 153.961 38.1316 153.529 38.2353 153.134C38.8556 151.559 37.1113 151.129 36.2707 151.582C35.3467 151.989 34.769 152.468 34.6782 152.332Z" fill="#3A3A3A"/>
<path fill-rule="evenodd" clip-rule="evenodd" d="M34.1231 133.748C34.062 133.662 34.4027 133.026 35.4229 132.35C35.9247 132.033 36.7765 131.782 37.6153 132.16C38.0264 132.335 38.4634 132.707 38.6449 133.265C38.8319 133.814 38.73 134.384 38.6097 134.824C38.3245 135.737 38.1745 136.311 38.4319 136.899C38.656 137.475 39.0985 137.841 39.5392 137.975C40.4632 138.258 41.0928 137.827 41.1613 137.964C41.2631 138.016 40.7169 138.818 39.3985 138.678C38.7652 138.602 38.006 138.121 37.6246 137.292C37.432 136.883 37.3246 136.385 37.3728 135.875C37.4209 135.377 37.5764 134.945 37.6801 134.55C38.2986 132.975 36.5562 132.545 35.7155 132.997C34.7897 133.405 34.2138 133.884 34.1231 133.748Z" fill="#3A3A3A"/>
<path fill-rule="evenodd" clip-rule="evenodd" d="M51.6535 157.951C51.5776 158.021 50.9462 157.72 50.2166 156.711C49.8722 156.213 49.5611 155.345 49.8444 154.432C49.9741 153.986 50.2888 153.496 50.8017 153.257C51.3054 153.013 51.8535 153.072 52.2812 153.159C53.1719 153.377 53.7293 153.484 54.2644 153.165C54.7903 152.879 55.0976 152.383 55.1884 151.91C55.3754 150.917 54.9125 150.296 55.0347 150.212C55.0773 150.101 55.8846 150.604 55.8642 151.995C55.8494 152.665 55.4606 153.502 54.7069 153.975C54.3366 154.212 53.8755 154.368 53.3867 154.36C52.909 154.354 52.4868 154.23 52.1035 154.156C50.5573 153.644 50.3018 155.508 50.8036 156.347C51.2702 157.282 51.7739 157.844 51.6535 157.951Z" fill="#3A3A3A"/>
<path fill-rule="evenodd" clip-rule="evenodd" d="M63.6068 177.387C63.6605 177.476 63.2772 178.083 62.2125 178.681C61.6885 178.959 60.8237 179.14 60.0127 178.7C59.6146 178.494 59.2054 178.089 59.0609 177.517C58.9147 176.957 59.0572 176.396 59.2091 175.968C59.5553 175.076 59.7442 174.516 59.5313 173.91C59.3461 173.319 58.9313 172.92 58.4999 172.75C57.6 172.398 56.9426 172.78 56.8834 172.639C56.7852 172.577 57.387 171.82 58.6906 172.063C59.3165 172.186 60.0405 172.723 60.3627 173.581C60.5256 174.004 60.5997 174.508 60.5145 175.014C60.4312 175.506 60.246 175.927 60.1145 176.312C59.3868 177.832 61.0959 178.401 61.9662 178.011C62.9161 177.677 63.5253 177.245 63.6068 177.387Z" fill="#3A3A3A"/>
<path fill-rule="evenodd" clip-rule="evenodd" d="M77.6791 146.733C77.7328 146.822 77.3495 147.432 76.2848 148.027C75.7607 148.304 74.896 148.487 74.085 148.047C73.6869 147.84 73.2776 147.436 73.1332 146.865C72.9869 146.303 73.1295 145.742 73.2813 145.314C73.6276 144.425 73.8165 143.864 73.6035 143.257C73.4184 142.665 73.0036 142.266 72.5721 142.097C71.6722 141.744 71.0149 142.124 70.9556 141.986C70.8575 141.923 71.4593 141.166 72.7629 141.41C73.3887 141.532 74.1127 142.069 74.4349 142.928C74.5997 143.35 74.6719 143.854 74.5868 144.36C74.5034 144.853 74.3183 145.273 74.1868 145.659C73.4591 147.181 75.1682 147.745 76.0385 147.358C76.9884 147.023 77.5976 146.591 77.6791 146.733Z" fill="#3A3A3A"/>
<path fill-rule="evenodd" clip-rule="evenodd" d="M87.2792 142.069C87.3403 141.986 88.0143 142.159 88.9087 143.012C89.3327 143.436 89.7901 144.23 89.6697 145.182C89.6197 145.643 89.3957 146.186 88.9328 146.521C88.4791 146.856 87.931 146.904 87.494 146.9C86.5811 146.858 86.0145 146.86 85.5442 147.276C85.0776 147.659 84.8609 148.204 84.8535 148.689C84.8442 149.699 85.4072 150.221 85.3016 150.326C85.2794 150.445 84.398 150.106 84.1739 148.734C84.074 148.072 84.3091 147.175 84.9683 146.566C85.2905 146.26 85.7182 146.019 86.1997 145.931C86.67 145.847 87.107 145.888 87.4977 145.886C89.105 146.093 89.0346 144.212 88.3939 143.483C87.7717 142.653 87.1792 142.198 87.2792 142.069Z" fill="#3A3A3A"/>
<path fill-rule="evenodd" clip-rule="evenodd" d="M48.4394 193.237C48.4931 193.327 48.1098 193.934 47.045 194.531C46.521 194.808 45.6563 194.991 44.8452 194.551C44.4471 194.343 44.0379 193.94 43.8935 193.368C43.7472 192.807 43.8898 192.246 44.0398 191.818C44.3879 190.927 44.5768 190.366 44.3638 189.761C44.1786 189.169 43.7639 188.77 43.3324 188.601C42.4307 188.249 41.7733 188.63 41.7159 188.49C41.6178 188.428 42.2177 187.67 43.5231 187.914C44.149 188.036 44.873 188.574 45.1952 189.432C45.3582 189.854 45.4304 190.358 45.3471 190.864C45.2637 191.357 45.0786 191.777 44.9471 192.161C44.2194 193.683 45.9285 194.249 46.7969 193.862C47.7487 193.527 48.3579 193.095 48.4394 193.237Z" fill="#3A3A3A"/>
<path fill-rule="evenodd" clip-rule="evenodd" d="M69.2666 163.739C69.1833 163.799 68.5889 163.422 67.9778 162.328C67.6908 161.793 67.4816 160.89 67.8649 160.02C68.0445 159.593 68.413 159.146 68.9481 158.97C69.4758 158.793 70.0147 158.918 70.4294 159.058C71.2886 159.387 71.8293 159.56 72.3978 159.311C72.9514 159.091 73.3144 158.638 73.4569 158.18C73.7532 157.217 73.3625 156.543 73.494 156.477C73.5495 156.37 74.2939 156.968 74.118 158.348C74.0273 159.011 73.5477 159.796 72.7459 160.171C72.3515 160.36 71.8756 160.458 71.3905 160.389C70.9183 160.323 70.5109 160.148 70.1406 160.025C68.6629 159.327 68.1982 161.145 68.6037 162.042C68.9611 163.027 69.3981 163.648 69.2666 163.739Z" fill="#3A3A3A"/>
<path fill-rule="evenodd" clip-rule="evenodd" d="M73.0044 179.588C72.9229 179.648 72.3267 179.27 71.7157 178.176C71.4305 177.641 71.2194 176.738 71.6046 175.868C71.7823 175.442 72.1508 174.996 72.6878 174.821C73.2155 174.642 73.7525 174.766 74.1673 174.908C75.0265 175.235 75.569 175.411 76.1356 175.16C76.6893 174.94 77.0522 174.488 77.1948 174.029C77.491 173.065 77.1022 172.394 77.2318 172.326C77.2874 172.221 78.0317 172.816 77.8577 174.196C77.7669 174.86 77.2855 175.644 76.4837 176.02C76.0912 176.211 75.6134 176.306 75.1283 176.238C74.6561 176.172 74.2506 175.997 73.8784 175.876C72.4008 175.175 71.936 176.993 72.3415 177.89C72.6989 178.875 73.1377 179.496 73.0044 179.588Z" fill="#3A3A3A"/>
<path fill-rule="evenodd" clip-rule="evenodd" d="M42.8598 172.827C42.7598 172.813 42.5617 172.114 42.808 170.872C42.9394 170.273 43.3597 169.457 44.2003 169.084C44.6057 168.893 45.163 168.821 45.6722 169.072C46.1776 169.313 46.496 169.786 46.7127 170.183C47.1403 171.032 47.4292 171.544 48.0087 171.76C48.5604 171.99 49.1158 171.908 49.5157 171.669C50.3507 171.166 50.4933 170.394 50.634 170.435C50.7414 170.396 50.9099 171.367 49.899 172.264C49.4084 172.69 48.5511 172.932 47.718 172.642C47.3033 172.506 46.8886 172.241 46.5738 171.848C46.2665 171.466 46.0776 171.048 45.8795 170.693C45.2334 169.134 43.7281 170.152 43.4541 171.1C43.0894 172.083 43.0153 172.854 42.8598 172.827Z" fill="#3A3A3A"/>
<path fill-rule="evenodd" clip-rule="evenodd" d="M70.0833 192.393C69.9833 192.38 69.7834 191.681 70.0315 190.439C70.1611 189.84 70.5832 189.024 71.4237 188.65C71.8274 188.46 72.3865 188.388 72.8956 188.639C73.4011 188.88 73.7177 189.353 73.9361 189.75C74.3638 190.599 74.6526 191.111 75.2322 191.327C75.782 191.556 76.3393 191.474 76.7392 191.235C77.5742 190.733 77.7168 189.96 77.8556 190.001C77.963 189.962 78.1334 190.933 77.1206 191.831C76.63 192.257 75.7728 192.498 74.9415 192.208C74.5268 192.072 74.112 191.807 73.7973 191.414C73.4899 191.033 73.3011 190.614 73.103 190.26C72.4568 188.701 70.9498 189.719 70.6776 190.669C70.3129 191.65 70.2388 192.42 70.0833 192.393Z" fill="#3A3A3A"/>
<path fill-rule="evenodd" clip-rule="evenodd" d="M69.2942 133.118C69.1943 133.104 68.9943 132.403 69.2424 131.164C69.372 130.564 69.7941 129.747 70.6347 129.375C71.0383 129.184 71.5974 129.112 72.1066 129.363C72.612 129.603 72.9286 130.077 73.1471 130.473C73.5748 131.323 73.8636 131.835 74.4431 132.051C74.993 132.279 75.5503 132.199 75.9502 131.96C76.7852 131.457 76.9277 130.685 77.0666 130.726C77.174 130.685 77.3443 131.656 76.3316 132.553C75.8409 132.981 74.9837 133.221 74.1524 132.933C73.7377 132.795 73.323 132.53 73.0082 132.139C72.7009 131.755 72.512 131.337 72.3139 130.984C71.6678 129.423 70.1607 130.441 69.8885 131.391C69.5238 132.374 69.4498 133.143 69.2942 133.118Z" fill="#3A3A3A"/>
<path fill-rule="evenodd" clip-rule="evenodd" d="M60.4007 200.262C60.3488 200.354 59.66 200.268 58.6712 199.54C58.199 199.176 57.6528 198.448 57.6583 197.489C57.6528 197.024 57.8102 196.455 58.2305 196.062C58.6397 195.671 59.1786 195.55 59.6119 195.496C60.5229 195.42 61.0839 195.342 61.5024 194.867C61.9191 194.425 62.069 193.857 62.019 193.376C61.9079 192.372 61.2876 191.928 61.3802 191.809C61.3876 191.69 62.3024 191.908 62.6875 193.242C62.8671 193.884 62.7393 194.805 62.1579 195.498C61.8746 195.842 61.4802 196.14 61.0117 196.288C60.5544 196.434 60.1155 196.451 59.7304 196.502C58.1102 196.51 58.4046 198.367 59.1267 199.005C59.8415 199.747 60.484 200.12 60.4007 200.262Z" fill="#3A3A3A"/>
<path fill-rule="evenodd" clip-rule="evenodd" d="M28.1123 142.069C28.1993 142.017 28.7567 142.455 29.264 143.605C29.4992 144.17 29.6233 145.086 29.1603 145.915C28.9437 146.32 28.5363 146.729 27.9864 146.848C27.4438 146.97 26.9198 146.789 26.5199 146.608C25.694 146.194 25.1718 145.964 24.5848 146.155C24.0127 146.316 23.6109 146.731 23.4257 147.173C23.0405 148.099 23.3664 148.81 23.2294 148.864C23.1665 148.963 22.4795 148.29 22.7832 146.935C22.935 146.285 23.485 145.555 24.3182 145.263C24.7274 145.115 25.2107 145.067 25.6866 145.186C26.1495 145.298 26.5384 145.516 26.8976 145.676C28.303 146.523 28.9344 144.761 28.6141 143.827C28.3493 142.809 27.9716 142.147 28.1123 142.069Z" fill="#3A3A3A"/>
<path fill-rule="evenodd" clip-rule="evenodd" d="M59.2783 136.205C59.3653 136.152 59.9227 136.59 60.4301 137.74C60.6652 138.305 60.7893 139.223 60.3264 140.051C60.1097 140.456 59.7023 140.864 59.1524 140.983C58.6099 141.106 58.0858 140.925 57.6859 140.744C56.86 140.329 56.3378 140.099 55.7509 140.29C55.1787 140.452 54.7769 140.866 54.5917 141.308C54.2066 142.235 54.5325 142.945 54.3954 142.999C54.3325 143.099 53.6455 142.427 53.9492 141.071C54.101 140.421 54.651 139.691 55.4842 139.401C55.8934 139.251 56.3767 139.202 56.8526 139.321C57.3155 139.434 57.7044 139.652 58.0636 139.811C59.469 140.658 60.1005 138.896 59.7801 137.962C59.5153 136.944 59.1376 136.282 59.2783 136.205Z" fill="#3A3A3A"/>
<path fill-rule="evenodd" clip-rule="evenodd" d="M40.0645 170.685C39.9978 170.677 40.009 169.962 40.0849 168.68C40.1608 167.395 40.3015 165.54 40.4959 163.251C40.8828 158.675 41.4938 152.353 42.2103 145.393C42.3732 143.665 42.4566 141.983 42.2307 140.414C42.0215 138.843 41.442 137.432 40.5996 136.286C38.8999 133.972 36.4875 132.769 34.4361 132.253C32.357 131.729 30.5851 131.755 29.378 131.79C28.1653 131.835 27.4914 131.914 27.4801 131.836C27.4691 131.776 28.1227 131.564 29.3465 131.397C30.5666 131.239 32.381 131.097 34.5861 131.554C36.7578 132.006 39.3906 133.203 41.2994 135.714C42.2492 136.952 42.9268 138.555 43.1657 140.262C43.423 141.969 43.3341 143.737 43.1694 145.492C42.451 152.474 41.7345 158.769 41.1735 163.329C40.8921 165.608 40.6477 167.452 40.457 168.721C40.2682 169.993 40.1312 170.692 40.0645 170.685Z" fill="#3A3A3A"/>
<path fill-rule="evenodd" clip-rule="evenodd" d="M41.3003 169.093C41.328 169.372 35.0016 170.304 27.1681 171.174C19.3347 172.048 12.962 172.529 12.9342 172.248C12.9065 171.972 19.2329 171.038 27.0682 170.168C34.8979 169.296 41.2724 168.813 41.3003 169.093Z" fill="#3A3A3A"/>
<path fill-rule="evenodd" clip-rule="evenodd" d="M79.8629 165.801C79.5462 165.77 81.0776 159.9 79.3296 152.907C77.6909 145.882 73.6801 141.493 73.9468 141.306C74.0208 141.228 75.1226 142.186 76.4891 144.132C77.8557 146.067 79.3907 149.063 80.2647 152.657C81.1276 156.252 81.1368 159.655 80.8146 162.041C80.4961 164.437 79.9647 165.833 79.8629 165.801Z" fill="#3A3A3A" fill-opacity="0.5"/>
<path fill-rule="evenodd" clip-rule="evenodd" d="M153.963 166.275C154.202 164.605 154.156 163.017 155.044 161.545C156.813 158.61 159.332 159.34 161.773 160.63C164.25 161.94 166.581 162.728 169.275 161.502C173.518 159.571 175.397 152.969 171.448 149.779C170.167 148.746 168.849 150.449 169.039 151.726C169.308 153.524 170.141 155.509 168.675 157.055C166.714 159.124 164.413 157.391 162.454 156.461C160.347 155.459 158.11 155.237 155.933 156.159C152.186 157.748 149.462 163.087 152.439 166.697C152.86 167.207 153.863 166.975 153.963 166.275Z" fill="#3A3A3A" fill-opacity="0.5"/>
<path fill-rule="evenodd" clip-rule="evenodd" d="M163.892 89.5825C164.29 92.2899 166.962 98.0026 169.78 98.7909C171.274 99.2093 172.385 98.1738 173.545 97.333C175.66 95.8012 177.748 94.2344 179.84 92.6675C180.596 92.1031 181.044 91.015 180.481 90.1041C178.629 87.1086 176.78 84.1131 174.928 81.1196C174.438 80.3274 173.307 79.8389 172.49 80.4481C170.178 82.1667 167.702 83.7608 165.592 85.75C164.149 87.1125 165.991 89.4326 167.611 88.5022C169.961 87.1514 172.103 85.3102 174.29 83.6849C173.475 83.4611 172.662 83.2373 171.849 83.0134C173.699 86.007 175.55 89.0025 177.4 91.996C177.615 91.1415 177.828 90.2851 178.041 89.4307C176.785 90.3708 175.526 91.305 174.275 92.249C173.647 92.722 171.079 95.1861 170.398 95.0246C169.589 94.8338 168.284 92.3833 167.773 91.743C166.884 90.6335 166.053 89.5844 164.905 88.7631C164.353 88.366 163.81 89.02 163.892 89.5825Z" fill="#3A3A3A" fill-opacity="0.5"/>
<path fill-rule="evenodd" clip-rule="evenodd" d="M137.679 117.505C134.77 120.442 133.663 125.014 136.438 128.541C139.049 131.863 144.105 132.568 147.367 129.921C155.245 123.529 147.034 111.736 138.534 114.177C136.96 114.628 137.353 116.987 138.908 117.081C141.393 117.228 144.053 117.33 146.038 119.159C148.171 121.127 148.217 124.453 146.469 126.715C141.835 132.704 133.787 123.885 138.655 118.531C139.267 117.855 138.321 116.857 137.679 117.505Z" fill="#3A3A3A" fill-opacity="0.5"/>
<path fill-rule="evenodd" clip-rule="evenodd" d="M204.626 144.673C203.623 150.151 202.768 155.639 201.97 161.154C201.779 162.479 202.647 163.374 203.899 163.182C208.826 162.428 213.737 161.734 218.599 160.605C219.534 160.387 219.914 159.176 219.469 158.353C216.715 153.255 213.206 146.153 208.022 143.371C206.709 142.667 204.85 144.191 205.832 145.674C207.374 148.008 209.657 149.757 211.453 151.895C213.521 154.357 215.463 157.006 216.953 159.9C217.372 159.131 217.792 158.362 218.21 157.596C213.119 158.123 208.107 159.086 203.066 160.003C203.729 160.533 204.389 161.062 205.05 161.593C205.658 156.05 206.2 150.517 206.595 144.954C206.68 143.78 204.841 143.504 204.626 144.673Z" fill="#3A3A3A" fill-opacity="0.5"/>
<path fill-rule="evenodd" clip-rule="evenodd" d="M184.26 117.873C184.33 116.159 181.675 115.73 181.369 117.461C180.408 122.901 180.062 128.709 180.023 134.231C180.016 135.381 181.719 135.671 181.967 134.507C183.108 129.141 184.032 123.368 184.26 117.873Z" fill="#3A3A3A" fill-opacity="0.5"/>
<path fill-rule="evenodd" clip-rule="evenodd" d="M253.98 134.778C255.905 134.706 255.833 131.89 253.98 131.687C248.862 131.127 243.456 131.247 238.327 131.637C237.298 131.714 236.889 133.507 238.065 133.68C243.258 134.445 248.736 134.978 253.98 134.778Z" fill="#3A3A3A" fill-opacity="0.5"/>
<path fill-rule="evenodd" clip-rule="evenodd" d="M195.737 64.1141C200.33 66.7184 205.364 69.2565 210.341 70.9401C211.909 71.4715 212.973 68.9042 211.474 68.114C206.793 65.6459 201.52 63.7424 196.499 62.2125C195.433 61.8894 194.739 63.5477 195.737 64.1141Z" fill="#3A3A3A" fill-opacity="0.5"/>
<path fill-rule="evenodd" clip-rule="evenodd" d="M210.305 108.397C209.142 107.313 207.233 107.103 206.101 108.397C204.957 109.707 205 111.505 206.101 112.817C206.179 112.909 206.257 113.002 206.337 113.096C207.377 114.334 209.523 114.297 210.571 113.096C211.614 111.903 211.823 109.81 210.571 108.644C210.482 108.563 210.394 108.481 210.305 108.397Z" fill="#3A3A3A" fill-opacity="0.5"/>
<path fill-rule="evenodd" clip-rule="evenodd" d="M230.473 91.4923C227.486 94.3246 226.349 98.7334 229.199 102.136C231.881 105.338 237.072 106.018 240.422 103.465C248.512 97.3013 240.08 85.9293 231.351 88.2829C229.735 88.7183 230.138 90.9931 231.735 91.0832C234.286 91.2258 237.019 91.3234 239.059 93.0896C241.247 94.9852 241.296 98.1928 239.5 100.374C234.741 106.149 226.478 97.6448 231.475 92.4815C232.106 91.8302 231.132 90.8673 230.473 91.4923Z" fill="#7CABFF"/>
<path fill-rule="evenodd" clip-rule="evenodd" d="M40.5444 63.6828C37.6227 62.3007 34.0279 62.6201 31.3707 64.4959C28.7134 66.3717 27.0842 69.742 27.2137 73.0968C27.3154 75.7179 28.314 78.701 26.7218 80.7278C25.4903 82.2919 23.2934 82.4391 21.5293 83.2753C18.1749 84.8627 16.5051 89.5068 18.0307 93.0145C18.8554 94.9135 20.4919 96.6616 20.1794 98.7213C19.9778 100.055 18.9663 101.11 17.8476 101.782C16.727 102.452 15.4732 102.835 14.3138 103.427C10.0903 105.592 7.52545 110.619 7.64565 115.54C7.76769 120.461 10.3547 125.13 14.0642 128.156C17.7755 131.181 22.5057 132.651 27.2044 132.834C31.9143 133.018 36.8405 131.863 40.4335 128.672C43.1314 126.276 44.8919 122.919 46.19 119.475C48.6605 112.926 49.6609 105.777 49.0914 98.7639C48.4978 91.4852 46.251 84.431 45.7591 77.1446C45.5946 74.7035 45.6278 72.2295 45.1082 69.8426C44.5886 67.4558 43.4218 65.096 41.4228 63.828" fill="#241352"/>
<path fill-rule="evenodd" clip-rule="evenodd" d="M40.6924 63.5081C43.331 57.5623 48.5772 53.0535 54.5218 51.6244C58.1725 50.7467 62.1787 51.0432 65.3862 53.1266C68.5956 55.21 70.8129 59.2741 70.3242 63.2946C70.0215 65.7793 68.7779 67.9972 67.9883 70.3533C67.1988 72.7115 66.9398 75.5856 68.4077 77.5227C69.7243 79.2622 71.9818 79.6912 73.7798 80.8159C76.3472 82.4249 77.961 85.6706 77.7915 88.8807C77.6219 92.0908 75.6744 95.1151 72.9537 96.394C75.6561 96.734 78.1963 98.3727 79.759 100.784C81.3236 103.198 81.8852 106.343 81.2652 109.215C80.3753 113.33 77.29 116.479 73.9712 118.703C69.3614 121.792 64.0149 123.583 58.5992 123.848C52.8515 124.131 46.4857 122.287 43.3584 117.05C41.3069 113.613 40.9933 109.323 40.7635 105.236C40.0688 92.8973 39.5929 80.5451 39.1169 68.1948C39.0403 66.2083 38.9656 64.1901 39.3977 62.2569" fill="#241352"/>
<path fill-rule="evenodd" clip-rule="evenodd" d="M58.5869 120.016L111.385 140.2L106.344 118.458L120.075 114.899C120.075 114.899 134.845 157.403 124.587 158.54C106.63 160.533 79.4604 153.282 79.4604 153.282L58.5869 120.016Z" fill="#FFAFA7"/>
<path fill-rule="evenodd" clip-rule="evenodd" d="M55.1909 213.568C55.1909 213.568 118.021 140.776 160.438 156.667C202.854 172.561 220.763 246.701 220.763 246.701L186.978 246.119C186.978 246.119 160.298 190.122 147.279 192.291C134.258 194.463 94.0479 247.762 94.0479 247.762L55.1909 213.568Z" fill="#FF7081"/>
<path fill-rule="evenodd" clip-rule="evenodd" d="M74.6386 169.997L77.2671 212.379C63.6162 229.919 16.0929 207.242 16.0929 207.242L15.5383 189.522L14.4346 147.316C15.529 130.509 30.4673 122.261 30.4673 122.261C36.6426 119.043 46.0604 117.217 54.5452 117.657C63.4028 118.112 65.5917 122.546 69.2405 130.992C72.1881 137.815 80.1887 148.933 74.6386 169.997Z" fill="#FBC580"/>
<path fill-rule="evenodd" clip-rule="evenodd" d="M25.7593 214.648C25.7593 214.648 18.5237 246.807 40.5778 251.877C62.6318 256.944 143.745 245.087 164.872 247.116C185.999 249.14 246.082 252.97 246.082 252.97L250.481 214.779C250.481 214.779 156.981 209.885 146.414 212.755C135.847 215.62 25.7593 214.648 25.7593 214.648Z" fill="#FF7081"/>
<path fill-rule="evenodd" clip-rule="evenodd" d="M35.4527 160.682C35.4527 160.682 28.7978 202.154 38.1827 201.132C69.0527 197.775 87.4342 197.323 87.4342 197.323L92.5505 208.556C92.6693 210.47 34.0905 228.202 24.6777 222.34C18.032 218.201 7.4447 207.051 12.2505 173.729L13.386 162.559L35.4527 160.682Z" fill="#FFAFA7"/>
<path fill-rule="evenodd" clip-rule="evenodd" d="M63.7447 219.932L63.6816 217.106L102.322 211.226L112.578 172.574L155.383 171.455L143.833 213.291L63.7447 219.932Z" fill="#9C8BBF"/>
<path fill-rule="evenodd" clip-rule="evenodd" d="M133.307 192.912C133.352 194.894 131.869 196.542 129.993 196.59C128.118 196.637 126.561 195.068 126.515 193.087C126.469 191.107 127.953 189.459 129.829 189.411C131.704 189.364 133.261 190.931 133.307 192.912Z" fill="white"/>
<path fill-rule="evenodd" clip-rule="evenodd" d="M134.154 191.533C134.217 194.26 132.177 196.524 129.599 196.59C127.021 196.656 124.88 194.499 124.817 191.772C124.755 189.046 126.795 186.782 129.373 186.718C131.951 186.652 134.092 188.809 134.154 191.533Z" fill="white"/>
<path fill-rule="evenodd" clip-rule="evenodd" d="M18.932 133.224C18.932 133.224 11.786 140.464 10.189 167.864L37.8436 164.635C37.8436 164.635 42.4521 117.969 18.932 133.224Z" fill="#FBC580"/>
<path fill-rule="evenodd" clip-rule="evenodd" d="M222.461 51.6745C222.461 51.6745 232.305 75.7138 235.049 74.4533C237.795 73.1947 263.217 56.0422 263.217 56.0422C263.217 56.0422 252.798 34.52 250.629 33.2635C248.461 32.009 222.461 51.6745 222.461 51.6745Z" fill="#FDAD32"/>
<path fill-rule="evenodd" clip-rule="evenodd" d="M250.467 35.0022C250.591 35.0481 249.871 37.2991 248.606 40.8971C247.343 44.4969 245.533 49.4455 243.482 54.8902C243.431 55.0243 243.379 55.1584 243.333 55.2834L243.195 55.6491L242.807 55.5866C237.146 54.666 232.049 53.7839 228.373 53.1004C224.696 52.4168 222.439 51.9317 222.461 51.803C222.482 51.6744 224.775 51.9262 228.48 52.4388C232.184 52.9534 237.298 53.727 242.961 54.6421L242.437 54.9471C242.483 54.8222 242.532 54.688 242.584 54.5539C244.637 49.1092 246.546 44.1974 247.973 40.6601C249.4 37.1209 250.344 34.9562 250.467 35.0022Z" fill="#002C68"/>
<path fill-rule="evenodd" clip-rule="evenodd" d="M231.859 71.8073C231.562 71.7492 232.438 68.0736 233.816 63.6014C235.197 59.1274 236.55 55.568 236.841 55.6505C237.131 55.7329 236.255 59.4085 234.883 63.8582C233.511 68.3061 232.156 71.8655 231.859 71.8073Z" fill="#002C68"/>
<path fill-rule="evenodd" clip-rule="evenodd" d="M261.519 51.1008C261.477 51.278 257.831 51.0471 253.376 50.5828C248.921 50.1211 245.345 49.6019 245.387 49.4247C245.431 49.2474 249.075 49.4783 253.532 49.9413C257.985 50.4044 261.561 50.9236 261.519 51.1008Z" fill="#002C68"/>
<path fill-rule="evenodd" clip-rule="evenodd" d="M33.5616 76.6631L34.1801 85.527C34.1801 85.527 27.2461 86.5445 29.2241 93.419C31.2003 100.293 35.9429 97.2847 35.9429 97.2847C35.9429 97.2847 37.129 114.901 53.7324 109.316C66.9455 104.871 66.1371 86.2727 64.4602 70.4173C63.8106 64.2747 58.464 60.052 52.8803 61.2341L42.8988 63.3484C37.1308 64.5682 33.1163 70.2924 33.5616 76.6631Z" fill="#FFAFA7"/>
<path fill-rule="evenodd" clip-rule="evenodd" d="M33.9634 91.5579L38.4998 117.935C39.5211 123.879 44.8938 127.68 50.2868 126.278C55.2839 124.976 58.4846 119.652 57.5873 114.135L55.1248 99.0171L33.9634 91.5579Z" fill="#FFAFA7"/>
<path fill-rule="evenodd" clip-rule="evenodd" d="M52.6614 92.6455C52.7094 92.597 52.811 92.8706 53.0389 92.9075C53.2612 92.9405 53.6003 92.6144 53.6827 91.9253C53.7966 91.2421 53.7335 90.3433 53.6648 89.3029C53.6058 88.1848 53.5481 87.0784 53.4877 85.9215C53.275 81.1192 53.2612 77.2118 53.4589 77.1943C53.6566 77.1769 53.9888 81.0552 54.2016 85.8575C54.2427 87.0182 54.2825 88.1247 54.3224 89.2447C54.3512 90.2715 54.3786 91.2867 54.1672 92.1272C54.0025 93.0046 53.3642 93.5481 52.9661 93.288C52.5845 93.0143 52.6353 92.6397 52.6614 92.6455Z" fill="#241352"/>
<path fill-rule="evenodd" clip-rule="evenodd" d="M57.7323 105.948C57.8086 106.07 57.1349 107.083 55.7429 108.175C54.3657 109.264 52.2144 110.338 49.7374 110.406C47.2604 110.48 45.0755 109.533 43.6667 108.522C42.2431 107.512 41.5396 106.54 41.6103 106.413C41.735 106.045 45.0365 109.241 49.7169 109.084C54.3974 108.972 57.5983 105.588 57.7323 105.948Z" fill="#241352"/>
<path fill-rule="evenodd" clip-rule="evenodd" d="M54.3223 96.7084C54.4138 96.7849 54.2038 97.3904 53.4806 97.9752C52.7825 98.5538 51.4976 99.025 50.1481 98.5352C48.804 98.0289 47.9982 96.7828 47.7237 95.8446C47.4329 94.8837 47.5675 94.2493 47.6806 94.2514C47.8223 94.2369 47.9336 94.7969 48.3212 95.5202C48.6963 96.2373 49.4177 97.13 50.4334 97.5123C51.4527 97.8843 52.49 97.6446 53.1594 97.3119C53.8395 96.9833 54.2146 96.603 54.3223 96.7084Z" fill="#241352"/>
<path fill-rule="evenodd" clip-rule="evenodd" d="M33.9415 94.0165C33.9429 94.1545 33.6358 94.3966 33.0919 94.1342C32.8317 94.0007 32.4874 93.6184 32.3401 92.9556C32.2657 92.6321 32.2327 92.2362 32.307 91.8222C32.3663 91.4172 32.6017 90.9806 32.862 90.8404C33.2172 90.6028 33.7143 90.7431 33.9443 91.3856L33.3356 91.9059C32.9377 90.2499 32.7449 88.9808 32.8936 88.8722C33.041 88.7636 33.4843 89.8517 33.9635 91.4489L33.3549 91.9692C33.3411 91.9353 33.2406 91.8629 33.1167 91.9421C32.9831 92.0077 32.9225 92.2701 32.968 92.6162C33.0121 92.9465 33.1456 93.1931 33.3081 93.3809C33.6372 93.7383 33.9498 93.8424 33.9415 94.0165Z" fill="#241352"/>
<path fill-rule="evenodd" clip-rule="evenodd" d="M58.8616 80.7822C58.6238 80.8223 58.3079 80.4531 58.1551 79.9588C58.0039 79.4645 58.0752 79.0328 58.313 78.9927C58.5508 78.9527 58.8667 79.3218 59.0178 79.8161C59.1707 80.3104 59.0994 80.7422 58.8616 80.7822Z" fill="#241352"/>
<path fill-rule="evenodd" clip-rule="evenodd" d="M43.6414 81.6786C43.4053 81.7273 43.0639 81.3654 42.8771 80.8725C42.6903 80.3784 42.7311 79.9404 42.9671 79.8918C43.2015 79.8443 43.5429 80.205 43.7297 80.6991C43.9165 81.192 43.8775 81.63 43.6414 81.6786Z" fill="#241352"/>
<path fill-rule="evenodd" clip-rule="evenodd" d="M45.8438 77.8989C45.7633 78.1521 45.0128 78.1431 44.1818 78.3711C43.3434 78.5722 42.6936 78.9421 42.4977 78.7589C42.2946 78.6045 42.8144 77.7535 43.9401 77.4662C45.0622 77.1735 45.9426 77.6655 45.8438 77.8989Z" fill="#241352"/>
<path fill-rule="evenodd" clip-rule="evenodd" d="M59.4267 73.759C59.3327 74.0032 58.6019 73.8829 57.7464 73.9762C56.8892 74.0481 56.1876 74.3084 56.0579 74.0858C55.9186 73.8865 56.5829 73.1485 57.6734 73.0462C58.764 72.9367 59.532 73.5364 59.4267 73.759Z" fill="#241352"/>
<path fill-rule="evenodd" clip-rule="evenodd" d="M33.2925 85.6991C37.8992 80.8039 39.2522 72.6485 40.5018 65.7704C44.7675 69.157 50.6347 69.9894 55.5533 67.9075C57.0967 69.8846 58.9104 71.6126 60.9145 73.0123C61.4858 73.4117 62.1604 73.7992 62.8097 73.5857C63.5823 73.3326 63.9269 72.3658 64.1101 71.5078C64.6995 68.7656 64.7213 65.8297 63.8435 63.1784C62.9657 60.5312 61.1248 58.2022 58.7145 57.186C56.1391 56.0986 53.2409 56.5711 50.5657 57.3264C46.5376 58.4651 42.6546 60.2148 39.0636 62.5082C35.5378 64.7581 32.1536 67.7375 30.6573 71.8795C29.1628 76.0234 29.1701 84.0779 32.7738 86.1716" fill="#241352"/>
<path fill-rule="evenodd" clip-rule="evenodd" d="M49.7533 99.5821C48.479 99.2085 48.0619 97.3923 48.679 96.1502C49.2944 94.8914 50.1161 94.1462 50.5921 94.2631C51.0618 94.4176 51.5889 95.549 51.7703 97.0353C51.9594 98.5071 51.0277 99.9391 49.7533 99.5821Z" fill="#241352" fill-opacity="0.2"/>
<path fill-rule="evenodd" clip-rule="evenodd" d="M43.4034 92.4486C41.3719 92.5664 39.8069 91.1927 39.9122 89.7198C40.0142 88.2346 41.489 87.179 43.2061 87.0757C44.9233 86.9848 46.4699 87.8731 46.6805 89.3397C46.8912 90.796 45.4349 92.3371 43.4034 92.4486Z" fill="#241352" fill-opacity="0.12"/>
<path fill-rule="evenodd" clip-rule="evenodd" d="M61.2602 91.5509C59.1867 91.6687 57.6142 90.2948 57.746 88.8218C57.8759 87.3385 59.3374 86.2787 61.0078 86.1775C62.6802 86.0907 64.232 86.979 64.4994 88.4417C64.7687 89.892 63.3318 91.4352 61.2602 91.5509Z" fill="#241352" fill-opacity="0.12"/>
<path fill-rule="evenodd" clip-rule="evenodd" d="M34.1206 107.717C33.8727 107.711 33.7351 104.9 33.5788 101.449C33.4277 97.9951 33.3139 95.1845 33.5602 95.1492C33.7979 95.1119 34.3092 97.8991 34.462 101.396C34.62 104.892 34.3601 107.725 34.1206 107.717Z" fill="#6042DD"/>
<path fill-rule="evenodd" clip-rule="evenodd" d="M62.3765 118.67C57.9942 116.784 91.7015 130.333 91.7015 130.333L88.2816 155.296L75.4609 150.743L62.3765 118.67Z" fill="#FBC580"/>
<path fill-rule="evenodd" clip-rule="evenodd" d="M40.5446 62.5331C41.5287 60.5952 41.8529 58.1091 41.4146 55.8561C41.054 54.0001 39.9806 52.1593 38.5153 52.0622C37.6833 52.0061 36.8762 52.5348 36.2643 53.275C34.7526 55.1008 34.3639 58.3163 35.3711 60.6599C36.3784 63.0036 38.6823 64.2488 40.6654 63.5215" fill="#241352"/>
<path fill-rule="evenodd" clip-rule="evenodd" d="M249.116 223.076C249.116 223.076 260.21 205.932 258.858 212.422C257.505 218.913 246.236 247.761 246.236 247.761L249.116 223.076Z" fill="#241352"/>
<path fill-rule="evenodd" clip-rule="evenodd" d="M84.3578 196.797C84.3578 196.797 99.5501 191.649 99.0287 193.343C98.5072 195.035 95.9226 195.097 93.3379 197.829C93.3379 197.829 110.321 198.027 109.504 199.539C108.687 201.049 97.6326 201.431 97.5653 201.688C97.4999 201.946 109.657 202.267 109.384 203.664C109.11 205.063 97.812 204.722 97.812 204.722C97.812 204.722 108.285 205.926 108.07 207.432C107.855 208.94 98.2007 207.854 98.2007 207.854C98.2007 207.854 106.282 208.851 106.071 210.216C105.944 211.048 82.4104 211.236 82.3616 211.848C82.3357 212.169 84.3578 196.797 84.3578 196.797Z" fill="#FFAFA7"/>
<path fill-rule="evenodd" clip-rule="evenodd" d="M107.388 118.49C107.388 118.49 97.8452 105.403 99.5464 105.411C101.248 105.416 102.135 107.88 105.439 109.566C105.439 109.566 100.167 93.2023 101.797 93.5456C103.43 93.8889 107.324 104.392 107.579 104.381C107.832 104.369 104.219 92.6011 105.574 92.457C106.928 92.3128 110.247 103.26 110.247 103.26C110.247 103.26 107.973 92.8534 109.408 92.6201C110.844 92.3868 112.959 101.974 112.959 101.974C112.959 101.974 111.268 93.923 112.573 93.7258C113.367 93.6063 120.57 113.577 120.57 113.577C120.381 113.577 107.388 118.49 107.388 118.49Z" fill="#FFAFA7"/>
<path fill-rule="evenodd" clip-rule="evenodd" d="M23.3711 156.194C23.4592 156.184 23.7592 156.841 23.7755 158.15C23.7722 158.785 23.5619 159.706 22.9063 160.281C22.5933 160.568 22.1269 160.773 21.6442 160.642C21.1664 160.52 20.806 160.12 20.5467 159.773C20.0217 159.018 19.6808 158.572 19.1427 158.493C18.6274 158.393 18.1627 158.606 17.8642 158.943C17.2381 159.646 17.2576 160.46 17.1304 160.451C17.0456 160.516 16.7211 159.58 17.4256 158.435C17.7697 157.889 18.4627 157.443 19.2308 157.535C19.6107 157.576 20.0168 157.742 20.3592 158.064C20.6935 158.375 20.9316 158.75 21.1664 159.06C22.0111 160.478 23.1167 159.094 23.177 158.074C23.3108 156.997 23.2325 156.206 23.3711 156.194Z" fill="#FCF2FC"/>
<path fill-rule="evenodd" clip-rule="evenodd" d="M30.574 148.217C30.5152 148.128 30.8431 147.446 31.8271 146.724C32.3102 146.385 33.1284 146.119 33.9359 146.521C34.3316 146.708 34.7523 147.105 34.9288 147.701C35.107 148.288 35.009 148.897 34.8931 149.367C34.6186 150.342 34.476 150.955 34.722 151.585C34.9377 152.198 35.3637 152.589 35.7897 152.733C36.6774 153.034 37.2835 152.575 37.3495 152.72C37.4475 152.776 36.9216 153.633 35.6543 153.483C35.0446 153.404 34.312 152.891 33.9448 152.003C33.7594 151.566 33.656 151.034 33.7041 150.489C33.7505 149.957 33.8984 149.496 33.9983 149.074C34.5954 147.392 32.9163 146.932 32.107 147.417C31.2175 147.851 30.6613 148.363 30.574 148.217Z" fill="#FCF2FC"/>
<path fill-rule="evenodd" clip-rule="evenodd" d="M30.574 129.366C30.5152 129.274 30.8431 128.594 31.8253 127.873C32.3084 127.534 33.1284 127.266 33.9359 127.669C34.3316 127.856 34.7523 128.253 34.927 128.85C35.107 129.436 35.009 130.045 34.8931 130.515C34.6186 131.49 34.4742 132.103 34.722 132.731C34.9377 133.346 35.3637 133.737 35.7879 133.881C36.6774 134.182 37.2835 133.723 37.3495 133.868C37.4475 133.924 36.9216 134.781 35.6525 134.631C35.0428 134.55 34.312 134.037 33.9448 133.151C33.7594 132.714 33.656 132.182 33.7024 131.638C33.7487 131.105 33.8984 130.644 33.9983 130.222C34.5936 128.54 32.9163 128.081 32.107 128.563C31.2157 129 30.6613 129.511 30.574 129.366Z" fill="#FCF2FC"/>
<path fill-rule="evenodd" clip-rule="evenodd" d="M48.8269 154.39C48.7428 154.454 48.0431 154.175 47.2346 153.243C46.853 152.782 46.5083 151.979 46.8222 151.134C46.9658 150.722 47.3147 150.268 47.883 150.047C48.4411 149.821 49.0485 149.875 49.5225 149.957C50.5094 150.158 51.127 150.257 51.72 149.962C52.3028 149.697 52.6434 149.238 52.7439 148.801C52.9512 147.882 52.4382 147.308 52.5736 147.23C52.6208 147.128 53.5154 147.592 53.4929 148.88C53.4764 149.499 53.0456 150.273 52.2104 150.711C51.8001 150.931 51.2891 151.075 50.7474 151.067C50.2181 151.062 49.7502 150.947 49.3255 150.878C47.6122 150.405 47.329 152.13 47.8851 152.906C48.4022 153.77 48.9603 154.291 48.8269 154.39Z" fill="#FCF2FC"/>
<path fill-rule="evenodd" clip-rule="evenodd" d="M61.1304 173.415C61.1846 173.507 60.7982 174.135 59.7248 174.752C59.1965 175.04 58.3247 175.227 57.507 174.773C57.1057 174.559 56.6931 174.141 56.5475 173.55C56.4 172.97 56.5438 172.391 56.6969 171.949C57.0459 171.027 57.2364 170.448 57.0217 169.823C56.835 169.211 56.4168 168.799 55.9819 168.624C55.0746 168.26 54.4119 168.654 54.3522 168.509C54.2533 168.445 54.86 167.662 56.1742 167.914C56.8051 168.041 57.535 168.596 57.8599 169.483C58.0241 169.919 58.0988 170.44 58.0129 170.963C57.9289 171.472 57.7423 171.906 57.6097 172.305C56.8761 173.875 58.5991 174.463 59.4765 174.061C60.4341 173.715 61.0483 173.268 61.1304 173.415Z" fill="#FCF2FC"/>
<path fill-rule="evenodd" clip-rule="evenodd" d="M75.5645 142.893C75.6187 142.985 75.2322 143.615 74.1588 144.231C73.6305 144.516 72.7588 144.705 71.9411 144.251C71.5398 144.037 71.1272 143.619 70.9816 143.03C70.8341 142.448 70.9779 141.869 71.1309 141.427C71.48 140.507 71.6704 139.928 71.4558 139.3C71.2691 138.689 70.8509 138.277 70.416 138.101C69.5087 137.737 68.846 138.13 68.7863 137.987C68.6873 137.922 69.294 137.14 70.6082 137.391C71.2392 137.518 71.9691 138.073 72.2939 138.96C72.4601 139.397 72.5329 139.918 72.447 140.441C72.363 140.95 72.1763 141.384 72.0438 141.783C71.3102 143.356 73.0332 143.939 73.9106 143.539C74.8682 143.193 75.4824 142.746 75.5645 142.893Z" fill="#FCF2FC"/>
<path fill-rule="evenodd" clip-rule="evenodd" d="M84.0208 139.156C84.0863 139.074 84.8099 139.243 85.77 140.073C86.2252 140.486 86.7162 141.259 86.587 142.186C86.5333 142.635 86.2928 143.164 85.7958 143.49C85.3088 143.816 84.7204 143.863 84.2513 143.86C83.2714 143.818 82.6631 143.82 82.1582 144.225C81.6573 144.599 81.4247 145.129 81.4168 145.601C81.4069 146.585 82.0111 147.093 81.8978 147.195C81.874 147.311 80.9278 146.981 80.6873 145.645C80.5799 145.001 80.8324 144.127 81.54 143.534C81.8859 143.236 82.3451 143.001 82.8619 142.916C83.3668 142.834 83.8359 142.874 84.2553 142.872C85.9807 143.073 85.9051 141.242 85.2174 140.532C84.5495 139.724 83.9134 139.281 84.0208 139.156Z" fill="#FCF2FC"/>
<path fill-rule="evenodd" clip-rule="evenodd" d="M44.9976 189.574C45.0518 189.667 44.6653 190.295 43.592 190.912C43.0637 191.198 42.1919 191.387 41.3742 190.932C40.9729 190.717 40.5603 190.301 40.4147 189.709C40.2673 189.13 40.411 188.551 40.5622 188.108C40.9132 187.187 41.1036 186.607 40.8889 185.982C40.7022 185.37 40.2841 184.958 39.8491 184.783C38.94 184.419 38.2773 184.813 38.2194 184.668C38.1205 184.604 38.7253 183.822 40.0414 184.073C40.6723 184.2 41.4022 184.755 41.7271 185.642C41.8913 186.078 41.9641 186.599 41.8801 187.122C41.7961 187.631 41.6095 188.066 41.4769 188.462C40.7433 190.035 42.4663 190.62 43.3418 190.22C44.3013 189.874 44.9155 189.428 44.9976 189.574Z" fill="#FCF2FC"/>
<path fill-rule="evenodd" clip-rule="evenodd" d="M66.2168 159.778C66.1296 159.84 65.5072 159.465 64.8674 158.388C64.5669 157.858 64.3479 156.969 64.7492 156.109C64.9372 155.691 65.323 155.249 65.8833 155.076C66.4359 154.899 67 155.024 67.4343 155.163C68.3339 155.485 68.9 155.658 69.4952 155.41C70.0748 155.195 70.4548 154.748 70.6041 154.295C70.9143 153.346 70.5052 152.682 70.6429 152.615C70.701 152.511 71.4804 153.1 71.2962 154.462C71.2012 155.116 70.6991 155.888 69.8596 156.259C69.4467 156.447 68.9484 156.543 68.4405 156.476C67.9461 156.411 67.5196 156.236 67.1319 156.117C65.5848 155.426 65.0982 157.219 65.5227 158.104C65.8969 159.076 66.3544 159.688 66.2168 159.778Z" fill="#FCF2FC"/>
<path fill-rule="evenodd" clip-rule="evenodd" d="M70.4608 175.04C70.3755 175.099 69.7513 174.727 69.1116 173.648C68.813 173.12 68.592 172.229 68.9953 171.371C69.1814 170.95 69.5671 170.51 70.1293 170.338C70.6818 170.161 71.244 170.284 71.6783 170.424C72.5778 170.747 73.1458 170.919 73.739 170.672C74.3186 170.455 74.6986 170.009 74.8479 169.556C75.1581 168.606 74.751 167.943 74.8867 167.876C74.9448 167.772 75.7241 168.36 75.5419 169.721C75.4469 170.376 74.9429 171.15 74.1035 171.52C73.6925 171.709 73.1923 171.803 72.6844 171.735C72.1901 171.67 71.7655 171.497 71.3758 171.378C69.8288 170.687 69.3423 172.48 69.7668 173.366C70.141 174.337 70.6004 174.95 70.4608 175.04Z" fill="#FCF2FC"/>
<path fill-rule="evenodd" clip-rule="evenodd" d="M40.0694 169.659C39.9742 169.643 39.7856 168.843 40.0201 167.419C40.1452 166.732 40.5453 165.798 41.3456 165.369C41.7316 165.151 42.2622 165.068 42.7469 165.356C43.2282 165.633 43.5313 166.175 43.7376 166.63C44.1447 167.602 44.4197 168.189 44.9714 168.437C45.4967 168.7 46.0255 168.606 46.4063 168.332C47.2012 167.756 47.337 166.871 47.4709 166.917C47.5732 166.873 47.7336 167.986 46.7711 169.014C46.304 169.503 45.4879 169.779 44.6947 169.447C44.2999 169.291 43.905 168.988 43.6054 168.537C43.3128 168.1 43.133 167.62 42.9444 167.214C42.3292 165.427 40.8961 166.594 40.6352 167.68C40.288 168.807 40.2175 169.69 40.0694 169.659Z" fill="#FCF2FC"/>
<path fill-rule="evenodd" clip-rule="evenodd" d="M67.2411 189.409C67.1459 189.393 66.9555 188.592 67.1918 187.169C67.3152 186.482 67.7171 185.548 68.5174 185.119C68.9017 184.901 69.4341 184.818 69.9188 185.106C70.4001 185.382 70.7015 185.925 70.9095 186.38C71.3167 187.352 71.5917 187.939 72.1435 188.186C72.6671 188.45 73.1977 188.356 73.5784 188.082C74.3735 187.506 74.5092 186.621 74.6414 186.667C74.7436 186.623 74.9058 187.736 73.9416 188.764C73.4744 189.253 72.6582 189.529 71.8667 189.197C71.4719 189.041 71.077 188.737 70.7773 188.287C70.4847 187.85 70.3049 187.37 70.1163 186.964C69.501 185.177 68.0661 186.344 67.807 187.432C67.4597 188.557 67.3892 189.44 67.2411 189.409Z" fill="#FCF2FC"/>
<path fill-rule="evenodd" clip-rule="evenodd" d="M67.2411 129.262C67.1459 129.246 66.9555 128.443 67.1918 127.022C67.3152 126.335 67.7171 125.398 68.5174 124.972C68.9017 124.753 69.4341 124.671 69.9188 124.959C70.4001 125.233 70.7015 125.777 70.9095 126.23C71.3167 127.205 71.5917 127.792 72.1435 128.039C72.6671 128.3 73.1977 128.209 73.5784 127.934C74.3735 127.359 74.5092 126.473 74.6414 126.52C74.7436 126.473 74.9058 127.586 73.9416 128.615C73.4744 129.105 72.6582 129.38 71.8667 129.05C71.4719 128.891 71.077 128.588 70.7773 128.14C70.4847 127.7 70.3049 127.22 70.1163 126.817C69.501 125.028 68.0661 126.194 67.807 127.283C67.4597 128.409 67.3892 129.291 67.2411 129.262Z" fill="#FCF2FC"/>
<path fill-rule="evenodd" clip-rule="evenodd" d="M57.5354 196.563C57.475 196.65 56.6729 196.569 55.5214 195.878C54.9716 195.532 54.3355 194.841 54.342 193.93C54.3355 193.489 54.5188 192.949 55.0082 192.576C55.4848 192.204 56.1123 192.09 56.6168 192.038C57.6777 191.966 58.331 191.892 58.8184 191.441C59.3035 191.022 59.4782 190.482 59.42 190.026C59.2906 189.073 58.5682 188.651 58.6761 188.539C58.6847 188.426 59.7499 188.633 60.1984 189.899C60.4075 190.508 60.2587 191.382 59.5817 192.04C59.2518 192.367 58.7925 192.65 58.247 192.79C57.7144 192.929 57.2033 192.945 56.7548 192.993C54.8681 193.001 55.2109 194.763 56.0519 195.369C56.8842 196.073 57.6324 196.428 57.5354 196.563Z" fill="#FCF2FC"/>
<path fill-rule="evenodd" clip-rule="evenodd" d="M25.8046 137.346C25.892 137.291 26.4514 137.753 26.9607 138.966C27.1968 139.561 27.3213 140.528 26.8566 141.403C26.6392 141.83 26.2303 142.261 25.6782 142.386C25.1336 142.516 24.6076 142.325 24.2062 142.134C23.3772 141.697 22.853 141.454 22.2638 141.656C21.6895 141.826 21.2862 142.263 21.1003 142.729C20.7137 143.707 21.0408 144.456 20.9033 144.513C20.8401 144.618 20.1505 143.908 20.4553 142.479C20.6077 141.793 21.1598 141.023 21.9962 140.715C22.4069 140.559 22.8921 140.508 23.3697 140.633C23.8344 140.752 24.2247 140.982 24.5853 141.151C25.9961 142.044 26.6299 140.186 26.3083 139.2C26.0425 138.126 25.6634 137.428 25.8046 137.346Z" fill="#FCF2FC"/>
<path fill-rule="evenodd" clip-rule="evenodd" d="M56.372 132.858C56.4594 132.802 57.0188 133.264 57.5281 134.477C57.7642 135.073 57.8887 136.042 57.424 136.914C57.2065 137.341 56.7976 137.773 56.2456 137.898C55.701 138.027 55.175 137.836 54.7735 137.645C53.9446 137.208 53.4204 136.966 52.8312 137.167C52.2569 137.337 51.8535 137.775 51.6677 138.241C51.2811 139.218 51.6082 139.967 51.4707 140.025C51.4075 140.129 50.7179 139.421 51.0227 137.99C51.1751 137.304 51.7272 136.535 52.5636 136.229C52.9743 136.071 53.4594 136.019 53.9371 136.145C54.4018 136.264 54.7921 136.494 55.1527 136.662C56.5634 137.555 57.1973 135.697 56.8757 134.711C56.6099 133.638 56.2307 132.94 56.372 132.858Z" fill="#FCF2FC"/>
<path fill-rule="evenodd" clip-rule="evenodd" d="M37.4347 167.864C37.3668 167.856 37.3782 167.108 37.4554 165.765C37.5327 164.42 37.6759 162.478 37.8738 160.081C38.2678 155.29 38.8897 148.671 39.6192 141.383C39.785 139.573 39.8698 137.813 39.6399 136.17C39.4269 134.525 38.837 133.048 37.9794 131.847C36.2492 129.424 33.7933 128.165 31.7049 127.625C29.5883 127.077 27.7846 127.103 26.5557 127.14C25.3212 127.187 24.6351 127.27 24.6237 127.189C24.6125 127.126 25.2778 126.903 26.5237 126.728C27.7658 126.563 29.6128 126.414 31.8576 126.893C34.0685 127.366 36.7486 128.619 38.6918 131.248C39.6587 132.544 40.3486 134.224 40.5917 136.011C40.8537 137.798 40.7632 139.649 40.5955 141.487C39.8642 148.797 39.1348 155.388 38.5637 160.163C38.2772 162.549 38.0284 164.479 37.8343 165.808C37.642 167.141 37.5025 167.872 37.4347 167.864Z" fill="#241352"/>
<path fill-rule="evenodd" clip-rule="evenodd" d="M39.9072 166.112C39.9353 166.263 33.4968 166.768 25.5245 167.239C17.5522 167.712 11.0665 167.973 11.0382 167.821C11.01 167.671 17.4485 167.165 25.4227 166.694C33.3913 166.222 39.8788 165.96 39.9072 166.112Z" fill="#241352"/>
<path fill-rule="evenodd" clip-rule="evenodd" d="M76.1666 161.58C75.8625 161.549 77.3328 155.741 75.6545 148.822C74.0811 141.874 70.2303 137.529 70.4863 137.346C70.5574 137.267 71.6152 138.217 72.9273 140.143C74.2394 142.057 75.7132 145.02 76.5524 148.577C77.3808 152.134 77.3897 155.5 77.0804 157.859C76.7746 160.23 76.2643 161.612 76.1666 161.58Z" fill="#241352"/>
<path fill-rule="evenodd" clip-rule="evenodd" d="M149.637 161.798C149.872 160.172 149.826 158.625 150.7 157.192C152.44 154.333 154.918 155.044 157.319 156.301C159.756 157.577 162.048 158.342 164.698 157.15C168.873 155.269 170.721 148.839 166.836 145.732C165.576 144.725 164.279 146.384 164.467 147.627C164.731 149.379 165.551 151.313 164.108 152.818C162.18 154.833 159.916 153.146 157.989 152.24C155.916 151.263 153.716 151.047 151.575 151.946C147.889 153.493 145.21 158.693 148.138 162.21C148.551 162.707 149.539 162.481 149.637 161.798Z" fill="#7E2E84"/>
<path fill-rule="evenodd" clip-rule="evenodd" d="M160.485 85.775C160.866 88.5027 163.424 94.2579 166.122 95.0521C167.553 95.4737 168.616 94.4305 169.728 93.5834C171.752 92.0401 173.752 90.4616 175.755 88.8831C176.478 88.3144 176.907 87.2182 176.368 86.3005C174.595 83.2827 172.825 80.2648 171.052 77.249C170.582 76.4509 169.499 75.9587 168.717 76.5724C166.503 78.3039 164.133 79.9099 162.113 81.914C160.732 83.2866 162.496 85.624 164.047 84.6867C166.296 83.3258 168.347 81.4708 170.44 79.8334C169.66 79.6079 168.882 79.3824 168.104 79.1569C169.875 82.1728 171.648 85.1907 173.418 88.2066C173.624 87.3457 173.828 86.4829 174.032 85.6221C172.83 86.5692 171.624 87.5104 170.426 88.4615C169.825 88.938 167.367 91.4205 166.714 91.2577C165.94 91.0656 164.69 88.5968 164.201 87.9516C163.35 86.8339 162.554 85.777 161.455 84.9495C160.927 84.5494 160.407 85.2083 160.485 85.775Z" fill="#FBC580"/>
<path fill-rule="evenodd" clip-rule="evenodd" d="M135.375 113.935C132.388 116.768 131.251 121.176 134.101 124.577C136.782 127.781 141.974 128.461 145.324 125.908C153.414 119.744 144.982 108.372 136.253 110.726C134.637 111.161 135.04 113.436 136.637 113.526C139.189 113.669 141.921 113.766 143.959 115.531C146.149 117.428 146.197 120.636 144.402 122.817C139.643 128.592 131.378 120.088 136.377 114.924C137.006 114.273 136.035 113.31 135.375 113.935Z" fill="#7CABFF"/>
<path fill-rule="evenodd" clip-rule="evenodd" d="M201.259 140.664C200.297 146.314 199.477 151.977 198.712 157.666C198.529 159.033 199.361 159.957 200.561 159.758C205.285 158.981 209.995 158.264 214.656 157.099C215.553 156.874 215.917 155.625 215.491 154.776C212.849 149.517 209.485 142.19 204.515 139.32C203.256 138.593 201.474 140.166 202.415 141.696C203.893 144.103 206.082 145.909 207.804 148.113C209.787 150.653 211.649 153.386 213.078 156.372C213.479 155.579 213.882 154.786 214.283 153.995C209.402 154.539 204.596 155.533 199.763 156.479C200.398 157.025 201.032 157.571 201.666 158.119C202.248 152.4 202.768 146.692 203.146 140.953C203.228 139.742 201.465 139.457 201.259 140.664Z" fill="#FF7081"/>
<path fill-rule="evenodd" clip-rule="evenodd" d="M178.099 130.317C179.47 124.962 180.581 119.202 180.855 113.72C180.939 112.009 177.747 111.581 177.38 113.308C176.224 118.736 175.808 124.531 175.761 130.041C175.752 131.189 177.8 131.478 178.099 130.317Z" fill="#FF957E"/>
<path fill-rule="evenodd" clip-rule="evenodd" d="M235.021 129.602C239.907 130.579 245.063 131.259 249.997 131.003C251.808 130.912 251.741 127.315 249.997 127.057C245.181 126.341 240.094 126.495 235.268 126.992C234.299 127.092 233.914 129.381 235.021 129.602Z" fill="#FBC580"/>
<path fill-rule="evenodd" clip-rule="evenodd" d="M193.203 61.0155C197.577 63.3956 202.371 65.7151 207.11 67.2538C208.603 67.7394 209.617 65.3932 208.189 64.671C203.732 62.4155 198.711 60.6758 193.929 59.2777C192.914 58.9824 192.253 60.4979 193.203 61.0155Z" fill="#FF7081"/>
<path fill-rule="evenodd" clip-rule="evenodd" d="M207.928 104.487C207.83 104.397 207.732 104.307 207.635 104.215C206.355 103.018 204.255 102.786 203.01 104.215C201.751 105.66 201.798 107.645 203.01 109.093C203.095 109.194 203.181 109.297 203.269 109.401C204.414 110.767 206.775 110.726 207.928 109.401C209.075 108.084 209.305 105.774 207.928 104.487Z" fill="#241352"/>
<path fill-rule="evenodd" clip-rule="evenodd" d="M93.075 5.01084C87.9078 6.89518 83.6322 11.5472 81.7612 17.2321C79.8902 22.9191 80.4435 29.5152 83.1739 34.7515C88.4288 44.8332 101.922 48.0795 110.446 41.3138C118.97 34.5481 120.617 19.284 113.776 10.4605C106.933 1.63896 93.1341 1.23219 85.8828 9.64093" fill="#FDF2E0"/>
</svg>
